<svg xmlns="http://www.w3.org/2000/svg" width="64" height="64" viewBox="0 0 16.933 16.933">
  <path style="isolation:auto;mix-blend-mode:normal" d="M8.467 0A8.467 8.467 0 0 0 0 8.467a8.467 8.467 0 0 0 8.467 8.466 8.467 8.467 0 0 0 3.394-.72c-2.08-1.937-3.39-4.696-3.39-7.746 0-3.053 1.314-5.813 3.4-7.75A8.467 8.467 0 0 0 8.466 0zm6.76 3.382C13.687 4.536 12.7 6.376 12.7 8.467c0 2.09.985 3.93 2.523 5.083a8.467 8.467 0 0 0 1.71-5.083 8.467 8.467 0 0 0-1.708-5.085z" color="#000" overflow="visible" solid-color="#000000" fill-rule="evenodd"/>
</svg>
